<svg width="7px" height="8px" viewBox="0 0 7 8" version="1.1" xmlns="http://www.w3.org/2000/svg" xmlns:xlink="http://www.w3.org/1999/xlink">
  <g id="Symbols" stroke="none" stroke-width="1" fill="none" fill-rule="evenodd">
    <g id="CardMeta" fill="#7C7C7C" stroke="#979797" stroke-width="0.5">
      <path d="M0.25,7.25 L6.75,7.25 L6.75,5 C6.75,4.58578644 6.41421356,4.25 6,4.25 L5.30901699,4.25 L3.6118034,5.0986068 L3.3881966,5.0986068 L1.69098301,4.25 L1,4.25 C0.585786438,4.25 0.25,4.58578644 0.25,5 L0.25,7.25 Z M2,3.46588552 L3.16305909,4.05073816 C3.37504014,4.15733436 3.62495986,4.15733436 3.83694091,4.05073816 L5,3.46588552 L5,1.25430141 C5,0.919441143 4.77801701,0.625151643 4.45604085,0.533158452 L4.2554831,0.475856239 C3.7617071,0.334777381 3.2382929,0.334777381 2.7445169,0.475856239 L2.54395915,0.533158452 C2.22198299,0.625151643 2,0.919441143 2,1.25430141 L2,3.46588552 Z" id="Combined-Shape"></path>
    </g>
  </g>
</svg>